<?xml version="1.0" encoding="UTF-8" standalone="no" ?>
<!-- Created with Inkscape (http://www.inkscape.org/) -->
<svg
  width="293.80643mm"
  height="293.80551mm"
  viewBox="0 0 293.80643 293.80551"
  version="1.1"
  id="svg1"
  inkscape:export-filename="beach_logo_black.svg"
  inkscape:export-xdpi="96"
  inkscape:export-ydpi="96"
  xmlns:inkscape="http://www.inkscape.org/namespaces/inkscape"
  xmlns:sodipodi="http://sodipodi.sourceforge.net/DTD/sodipodi-0.dtd"
  xmlns:xlink="http://www.w3.org/1999/xlink"
  xmlns="http://www.w3.org/2000/svg"
  xmlns:svg="http://www.w3.org/2000/svg"
>
  <sodipodi:namedview
    id="namedview1"
    pagecolor="#ffffff"
    bordercolor="#000000"
    borderopacity="0.25"
    inkscape:showpageshadow="2"
    inkscape:pageopacity="0.0"
    inkscape:pagecheckerboard="0"
    inkscape:deskcolor="#d1d1d1"
    inkscape:document-units="mm"
  />
  <defs id="defs1" />
  <g inkscape:label="Calque 1" inkscape:groupmode="layer" id="layer1" transform="translate(43.507928,-1.3453586)">
    <g id="g3-1-2" style="stroke:none" transform="matrix(1.8042967,0,0,1.8042967,-118.86095,372.80568)">
      <path
        d="m 79.998077,-67.403986 c 30.805353,23.849419 75.112003,18.210557 98.961493,-12.594744 23.84961,-30.80519 18.21104,-75.11186 -12.59411,-98.96156 -30.80533,-23.84972 -75.11224,-18.21097 -98.961835,12.59451 -23.849732,30.80533 -18.21099,75.112238 12.59444,98.961839 z"
        style="display:inline;fill:none;fill-opacity:0.253898;stroke:none;stroke-width:0.280554;stroke-opacity:1"
        id="path2-3-25"
      />
      <path
        d="m 72.592107,-159.04135 c 19.950521,-27.93961 58.773303,-34.41612 86.712983,-14.46567 27.93974,19.95034 34.41652,58.77307 14.46624,86.712873 -19.95042,27.939872 -58.77342,34.416556 -86.713222,14.465968 C 59.118229,-92.2786 52.641536,-131.10158 72.592081,-159.04137 Z"
        style="display:inline;fill:none;fill-opacity:0.253898;stroke:none;stroke-width:0.247233;stroke-opacity:1"
        id="path2-6-2-9"
      />
    </g>
    <text
      xml:space="preserve"
      style="font-style:normal;font-variant:normal;font-weight:800;font-stretch:normal;font-size:14.1111px;line-height:0;font-family:Montserrat;-inkscape-font-specification:Montserrat;letter-spacing:1.32292px;fill:#ffffff;fill-opacity:1;stroke:none;stroke-width:0;stroke-dasharray:none;stroke-opacity:1;paint-order:normal"
      id="text99-95-5"
      transform="matrix(1.8042967,0,0,1.8042967,-118.86095,372.80568)"
    ><textPath
        xlink:href="#path2-3-25"
        id="textPath2-83-9"
        style="font-size:14.1111px;line-height:0;letter-spacing:1.32292px;fill:#ffffff;fill-opacity:1;stroke:none"
        dx="0"
      >NOGENTAIS</textPath></text>
    <text
      xml:space="preserve"
      style="font-style:normal;font-variant:normal;font-weight:800;font-stretch:normal;font-size:14.1111px;font-family:Montserrat;-inkscape-font-specification:Montserrat;letter-spacing:1.32292px;fill:#ffffff;fill-opacity:1;stroke:none;stroke-width:0.7;stroke-dasharray:none;stroke-opacity:1"
      id="text3-2-7"
      transform="matrix(1.8042967,0,0,1.8042967,-118.86095,372.80568)"
    ><textPath
        xlink:href="#path2-6-2-9"
        id="textPath3-78-0"
        style="font-size:14.1111px;letter-spacing:1.32292px;fill:#ffffff;fill-opacity:1;stroke:none"
      >VOLLEY CLUB</textPath></text>
    <text
      xml:space="preserve"
      style="font-style:normal;font-variant:normal;font-weight:800;font-stretch:normal;font-size:20.3685px;line-height:0;font-family:Montserrat;-inkscape-font-specification:Montserrat;letter-spacing:2.38694px;fill:#ffffff;fill-opacity:1;stroke:none;stroke-width:1.26301;stroke-dasharray:none;stroke-opacity:1"
      x="-27.800743"
      y="155.37715"
      id="text5-2-49"
    ><tspan
        sodipodi:role="line"
        id="tspan5-0-30"
        style="font-size:20.3685px;fill:#ffffff;fill-opacity:1;stroke:none;stroke-width:1.26301"
        x="-27.800743"
        y="155.37715"
      >19</tspan></text>
    <text
      xml:space="preserve"
      style="font-style:normal;font-variant:normal;font-weight:800;font-stretch:normal;font-size:20.3685px;line-height:0;font-family:Montserrat;-inkscape-font-specification:Montserrat;letter-spacing:2.38694px;fill:#ffffff;fill-opacity:1;stroke:none;stroke-width:1.26301;stroke-dasharray:none;stroke-opacity:1"
      x="209.36119"
      y="155.37715"
      id="text5-8-1-3"
    ><tspan
        sodipodi:role="line"
        id="tspan5-5-7-0"
        style="font-size:20.3685px;fill:#ffffff;fill-opacity:1;stroke:none;stroke-width:1.26301"
        x="209.36119"
        y="155.37715"
      >72</tspan></text>
    <path
      d="M 103.3948,1.3453586 A 146.90287,146.90287 0 0 0 -43.507926,148.24811 146.90287,146.90287 0 0 0 103.3948,295.15086 146.90287,146.90287 0 0 0 250.29849,148.24811 146.90287,146.90287 0 0 0 103.3948,1.3453586 Z m 0,7.025603 A 139.87709,139.87709 0 0 1 243.27195,148.24811 139.87709,139.87709 0 0 1 103.3948,288.12525 139.87709,139.87709 0 0 1 -36.482324,148.24811 139.87709,139.87709 0 0 1 103.3948,8.3709616 Z"
      style="fill:#ffffff;fill-opacity:1;stroke-width:1.6274"
      id="path3-2"
    />
    <path
      d="m 103.3948,44.371722 c -25.288562,0.0224 -49.700582,9.26923 -68.657909,26.00639 l 7.269892,0.77016 c 17.412843,-13.99298 39.049858,-21.67943 61.388017,-21.80781 22.47864,0.0808 44.25935,7.81629 61.75353,21.93182 l 6.62562,-0.96037 C 152.87907,53.662062 128.57871,44.443532 103.3948,44.371722 Z M 26.82551,78.289502 C 9.3174067,97.387582 -0.42171034,122.33929 -0.48064434,148.24811 -0.48085134,205.61706 46.025861,252.12419 103.3948,252.1245 c 57.36933,2e-4 103.87661,-46.50708 103.87639,-103.87639 -0.079,-25.64586 -9.64261,-50.356048 -26.84927,-69.373078 l 0.78321,8.70393 c 13.58639,17.312638 21.01087,38.662108 21.09826,60.669148 -2e-4,54.62535 -44.28324,98.90795 -98.90859,98.90765 -54.624977,-2e-4 -98.9074263,-44.28266 -98.9076383,-98.90765 0.11506,-21.62688 7.3155363,-42.62009 20.4987313,-59.764728 0.295073,-3.83004 1.19562,-7.75285 1.839617,-10.19388 z"
      style="fill:#ffffff;stroke-width:1.8863"
      id="path13-0"
    />
    <g id="g31-0-5" transform="matrix(1.8042967,0,0,1.8042967,-391.90765,-548.68384)">
      <path
        d="m 236.05577,346.30471 c -4.39575,12.74768 4.3956,28.86698 4.3956,28.86698 l 2.78432,-3.95635 c -5.56795,-10.11023 -4.54236,-20.22151 -4.54236,-20.22151 0,0 5.7151,-0.0727 15.45901,11.57604 0,0 1.90486,1.1e-4 4.83536,2.63757 0,0 -4.32262,-2.92996 -10.98951,3.22409 0,0 3.80972,-1.31918 5.49476,-1.24592 0,0 -8.93875,1.9056 -13.9206,15.23938 0,0 3.73707,-4.90899 11.64942,-6.66729 0,0 -11.21018,5.78844 -15.38614,12.30881 0,0 -3.37002,7.61937 -10.54975,12.23491 0,0 5.49496,1.97863 10.1105,3.22409 0,0 -5.34859,0.36657 -5.7149,-0.14624 0,0 5.6421,4.98175 13.70097,6.66677 0,0 -3.44362,0.65931 -4.02972,0.29301 0,0 9.32297,6.23566 25.61445,8.64495 -9.39326,-3.5643 -18.21491,-8.1318 -18.21491,-8.1318 1.24547,0.73264 6.08129,-0.29353 6.08129,-0.29353 -11.06268,-2.12461 -15.82539,-6.44715 -15.82539,-6.44715 h 6.59391 c -4.24924,-2.78398 -10.11515,-3.62562 -10.11515,-3.62562 6.21655,-2.95287 12.01943,-9.79113 12.01943,-9.79113 -1.39873,1.45052 -5.75056,2.27945 -5.75056,2.27945 0,0 5.23283,-4.66245 8.96276,-7.71891 3.72993,-3.05648 6.57893,-3.83388 6.57893,-3.83388 5.6467,-1.45052 7.46053,1.19166 7.46053,1.19166 -0.81102,-2.1627 -1.13115,-2.6236 -1.24231,-2.71973 6.32422,2.62057 7.61969,11.72642 7.61969,11.72642 0.98905,-0.696 3.91966,-1.20871 3.91966,-1.20871 -0.51284,-10.91615 -8.64547,-17.73019 -8.64547,-17.73019 0,0 4.32251,0.29268 5.78776,3.29644 0,0 -3.00375,-9.01166 -5.12836,-12.74806 0,0 4.54232,5.71516 6.44715,10.69702 1.90483,4.98188 -1.02578,-7.18044 -1.02578,-7.18044 0,0 1.31869,2.12483 1.90479,3.66335 0.5861,1.53851 -0.95199,-5.42127 -3.58944,-8.57157 -2.18231,-2.60664 2.44864,1.0918 5.94072,9.98802 3.49208,-8.89614 8.12302,-12.59466 5.94072,-9.98802 -2.63746,3.1503 -4.17605,10.11008 -3.58996,8.57157 0.5861,-1.53852 1.90531,-3.66335 1.90531,-3.66335 0,0 -2.93112,12.16232 -1.02629,7.18044 1.90483,-4.98186 6.44767,-10.69702 6.44767,-10.69702 -2.12463,3.7364 -5.12837,12.74806 -5.12837,12.74806 1.46525,-3.00376 5.78776,-3.29644 5.78776,-3.29644 0,0 -8.13263,6.81404 -8.64547,17.73019 0,0 2.93061,0.51271 3.91966,1.20871 0,0 1.29547,-9.10585 7.61969,-11.72642 -0.11116,0.0961 -0.43129,0.55703 -1.2423,2.71973 0,0 1.81331,-2.64218 7.46001,-1.19166 0,0 2.84951,0.7774 6.57944,3.83388 3.72993,3.05646 8.96276,7.71891 8.96276,7.71891 0,0 -4.35183,-0.82893 -5.75055,-2.27945 0,0 5.80235,6.83826 12.0189,9.79113 0,0 -5.86539,0.84164 -10.11463,3.62562 h 6.59392 c 0,0 -4.76272,4.32254 -15.82539,6.44715 0,0 4.83581,1.02617 6.08128,0.29353 0,0 -8.82165,4.5675 -18.21491,8.1318 16.29148,-2.40929 25.61446,-8.64495 25.61446,-8.64495 -0.5861,0.3663 -4.02973,-0.29301 -4.02973,-0.29301 8.05887,-1.68502 13.70097,-6.66677 13.70097,-6.66677 -0.36631,0.51281 -5.7149,0.14624 -5.7149,0.14624 4.61554,-1.24546 10.1105,-3.22409 10.1105,-3.22409 -7.17972,-4.61554 -10.55026,-12.23491 -10.55026,-12.23491 -4.17597,-6.52037 -15.38563,-12.30881 -15.38563,-12.30881 7.91235,1.7583 11.64942,6.66729 11.64942,6.66729 -4.98185,-13.33378 -13.9206,-15.23938 -13.9206,-15.23938 1.68504,-0.0733 5.49476,1.24592 5.49476,1.24592 -6.66689,-6.15405 -10.98951,-3.22409 -10.98951,-3.22409 2.9305,-2.63746 4.83536,-2.63757 4.83536,-2.63757 9.74392,-11.64873 15.45901,-11.57604 15.45901,-11.57604 0,0 1.02558,10.11128 -4.54236,20.22151 l 2.78381,3.95635 c 0,0 8.79187,-16.1193 4.39611,-28.86698 0,0 -19.04949,0.51376 -25.78964,18.53634 0,0 0.29303,-3.15032 0.9524,-5.78776 0,0 -1.97828,1.09866 -3.00395,2.71043 0,0 0.73299,-3.15013 1.83193,-4.3956 0,0 -4.61593,-1.978 -10.18388,1.97818 0,0 0.21746,-3.15501 1.51257,-4.34651 -0.24566,-0.0307 -1.89285,-0.37974 -4.01009,-0.42891 -2.11739,0.0492 -3.76441,0.39818 -4.01009,0.42891 1.29511,1.1915 1.51257,4.34651 1.51257,4.34651 -5.56795,-3.95618 -10.18388,-1.97818 -10.18388,-1.97818 1.09894,1.24547 1.83142,4.3956 1.83142,4.3956 -1.02568,-1.61177 -3.00395,-2.71043 -3.00395,-2.71043 0.65936,2.63744 0.95291,5.78776 0.95291,5.78776 -6.74015,-18.02258 -25.78964,-18.53634 -25.78964,-18.53634 z m 21.7873,25.12819 c 2.0208,-0.032 3.90798,0.57909 5.12217,2.42465 -6.21664,-2.9011 -14.66112,0.82889 -14.66112,0.82889 0,0 5.09319,-3.18315 9.53895,-3.25354 z m 33.80672,0 c 4.44574,0.0704 9.53895,3.25354 9.53895,3.25354 0,0 -8.4445,-3.72998 -14.66112,-0.82889 1.21419,-1.84556 3.10138,-2.45667 5.12217,-2.42465 z m -33.08842,12.88965 c -3.40463,5e-5 -6.16495,2.85314 -6.165,6.37222 -1.1e-4,3.51919 2.76026,6.37217 6.165,6.37222 3.40486,1.2e-4 6.16563,-2.85291 6.16552,-6.37222 -5e-5,-3.5192 -2.76077,-6.37234 -6.16552,-6.37222 z m 32.37012,0 c -3.40478,-1.2e-4 -6.16547,2.85299 -6.16552,6.37222 -1.1e-4,3.51934 2.76062,6.37234 6.16552,6.37222 3.40478,-5e-5 6.16459,-2.853 6.16448,-6.37222 -5e-5,-3.51911 -2.75981,-6.37217 -6.16448,-6.37222 z m -32.32929,1.24075 c 2.90424,-1.2e-4 5.25871,2.35435 5.25859,5.25859 1.2e-4,2.90425 -2.35435,5.25872 -5.25859,5.2586 -2.90405,-1.7e-4 -5.2582,-2.35455 -5.25808,-5.2586 -1.2e-4,-2.90404 2.35403,-5.25843 5.25808,-5.25859 z m 32.39337,0 c 2.90427,-1.2e-4 5.25871,2.35432 5.25859,5.25859 1.2e-4,2.90428 -2.35432,5.25872 -5.25859,5.2586 -2.90428,1.2e-4 -5.25872,-2.35432 -5.2586,-5.2586 -1.2e-4,-2.90427 2.35432,-5.25871 5.2586,-5.25859 z m 0.56482,0.77411 c -1.24483,-2.9e-4 -2.25414,1.00878 -2.25412,2.25361 -2e-5,1.24484 1.00929,2.25391 2.25412,2.25361 1.24443,-2.7e-4 2.25311,-1.00918 2.25309,-2.25361 2e-5,-1.24443 -1.00866,-2.25333 -2.25309,-2.25361 z m -33.68373,0.11162 c -1.24442,2.8e-4 -2.2531,1.00919 -2.25309,2.25361 -1e-5,1.24442 1.00867,2.25334 2.25309,2.25361 1.24482,3e-4 2.25414,-1.00878 2.25413,-2.25361 1e-5,-1.24482 -1.00931,-2.2539 -2.25413,-2.25361 z m -3.80752,4.55942 c 0,0 4.66287,9.5841 9.37721,0.20722 -4.29989,6.82569 -9.37721,-0.31889 -9.37721,-0.20722 z m 41.92302,0.23357 c 0,-0.11167 -5.07675,7.03298 -9.37669,0.20723 4.71439,9.37697 9.37669,-0.20723 9.37669,-0.20723 z m -21.24573,1.95906 c -9.48028,0.0863 -17.13376,5.93227 -17.13384,13.13925 -1.4e-4,7.20709 7.65341,13.0529 17.13384,13.13925 9.48056,-0.0862 17.13346,-5.93209 17.13332,-13.13925 -8e-5,-7.20705 -7.65292,-13.05302 -17.13332,-13.13925 z m 0,6.79596 c 0.0714,0.002 0.13906,0.0141 0.20981,0.0176 3.34126,0.17771 5.99186,2.39574 5.99188,5.13406 -0.0379,2.58918 -2.44714,4.75625 -5.63583,5.06946 0.93923,2.69062 2.75797,3.10317 2.75797,3.10317 0,0 2.04614,0.66068 2.77141,-0.0646 0.72527,-0.72525 0.99735,-0.16847 0.99735,-0.16847 0,0 0.75128,2.00775 -2.53835,1.96888 -1.81362,-0.0215 -3.43503,-1.07984 -4.55424,-2.03037 -1.11921,0.95056 -2.74052,2.00888 -4.55424,2.03037 -3.28964,0.0389 -2.53835,-1.96888 -2.53835,-1.96888 0,0 0.27157,-0.55678 0.99684,0.16847 0.72527,0.72528 2.77192,0.0646 2.77192,0.0646 0,0 1.81874,-0.41254 2.75797,-3.10317 -3.1887,-0.31321 -5.59791,-2.48028 -5.63583,-5.06946 2e-5,-2.73832 2.6501,-4.95635 5.99137,-5.13406 0.0708,-0.004 0.13886,-0.0158 0.21032,-0.0176 z m 0,1.0232 c -1.5848,0.0423 -2.84651,0.52224 -2.84634,1.12396 2.6e-4,0.60161 1.26185,1.08164 2.84634,1.12396 1.58435,-0.0424 2.84609,-0.52239 2.84634,-1.12396 1.7e-4,-0.60168 -1.26168,-1.08158 -2.84634,-1.12396 z"
        style="fill:#ffffff;stroke-width:1.03247"
        id="path30-4-9"
      />
      <g id="g29-4-7-1" style="fill:#ffffff" transform="translate(-73.768019,114.61873)">
        <path
          d="m 339.73585,236.00213 c 3.89386,-1.21491 12.53643,-2.99141 21.963,1.16737 0,0 1.57623,-1.12733 4.0256,-2.63136 -3.389,-2.8111 -7.09192,-5.39996 -11.0169,-7.64863 -2.9565,-1.69385 -6.03752,-3.08022 -9.49555,-4.27261 -2.54683,-0.87819 -6.07427,-1.69343 -7.3272,-1.69343 -1.85984,0 -8.056,2.04071 -11.73985,3.86643 -2.55384,1.26567 -5.62469,2.98717 -5.6255,3.15381 -3.7e-4,0.0662 0.73991,0.29414 1.64486,0.50643 1.91937,0.45024 6.27137,1.90795 8.523,2.8546 2.18935,0.92046 6.45216,3.15166 9.04854,4.69739 z"
          style="fill:#ffffff;stroke-width:0.802416"
          id="path29-5-3-6"
        />
        <path
          d="m 296.99427,277.83679 c 4.46593,-4.08647 10.32517,-10.22155 11.01329,-14.8854 0,0 -3.11065,-7.19359 -5.25395,-15.88792 l -0.95601,1.93735 c -4.44841,9.01373 -5.97362,19.08686 -4.80333,28.83597 z"
          style="fill:#ffffff;stroke-width:0.802416"
          id="path28-1-3-7"
        />
        <path
          d="m 310.44048,301.9516 c -2.11384,-0.97746 -4.20454,-2.04283 -6.23683,-3.21996 1.52361,2.49956 3.2449,4.89362 5.21261,7.11843 0.79343,0.8971 1.46564,1.61451 1.49344,1.59421 0.0278,-0.0202 -0.10795,-1.41479 -0.30179,-3.09955 -0.077,-0.66905 -0.1148,-1.57253 -0.16743,-2.39313 z"
          style="fill:#ffffff;stroke-width:0.802416"
          id="path27-4-0-6"
        />
        <path
          d="m 331.20046,308.89071 c -5.33236,-1.23413 -11.32706,-2.96803 -17.29662,-5.42396 0.009,0.0893 0.0182,0.28895 0.0263,0.36225 0.48413,4.34172 0.91772,7.03408 1.20665,7.49153 0.36608,0.57961 3.65704,3.0515 5.98413,4.49482 2.18274,1.35379 6.00671,3.27096 8.52713,4.27519 2.06321,0.82207 2.54761,0.94958 2.54661,0.66973 -5.4e-4,-0.0876 -0.19139,-1.44878 -0.42426,-3.02514 -0.43367,-2.9355 -0.61546,-5.89528 -0.56999,-8.84442 z"
          style="fill:#ffffff;stroke-width:0.802416"
          id="path26-3-9-1"
        />
        <path
          d="m 392.60033,297.97251 c -8.97777,5.98688 -22.83522,12.08399 -43.41699,13.78934 0,0 -6.05884,-0.3991 -14.52056,-2.11977 -0.01,5.15373 0.19119,7.2874 1.04851,11.05669 l 0.32711,1.43764 1.63453,0.34261 c 2.50188,0.52376 4.29725,0.79994 6.458,0.99426 4.45279,0.40044 11.06241,-0.0517 15.67708,-1.0728 12.07429,-2.67176 22.78665,-9.60511 30.43845,-19.70009 1.09003,-1.43808 3.34756,-4.95086 3.24683,-5.05189 -0.0138,-0.0138 -0.61254,0.22557 -0.89296,0.32401 z"
          style="fill:#ffffff;stroke-width:0.802416"
          id="path25-5-6-1"
        />
        <path
          d="m 390.21081,267.60795 c 2.18293,3.60437 5.50194,8.39181 9.63765,12.23388 0.10412,-0.60231 0.22093,-1.19521 0.30954,-1.80815 0.40988,-2.83519 0.34804,-10.44396 -0.10903,-13.43846 -0.60388,-3.95635 -0.35998,-3.75585 -2.4629,-2.02933 -2.24684,1.84467 -4.74728,3.53017 -7.37526,5.04206 z"
          style="fill:#ffffff;stroke-width:0.802416"
          id="path24-6-1-4"
        />
        <path
          d="m 393.27884,245.27237 c -0.70213,5.31659 -2.19691,10.95286 -5.15163,15.93494 0.0926,0.40569 0.19742,0.81377 0.2713,1.21543 0.2047,1.1128 0.46075,2.02313 0.56896,2.02313 0.7491,0 9.0934,-6.33671 9.4015,-7.13961 0.18516,-0.48253 -1.32196,-4.5578 -2.91559,-7.88324 -0.76274,-1.59163 -1.46045,-2.91114 -2.17454,-4.15065 z"
          style="fill:#ffffff;stroke-width:0.802416"
          id="path23-3-4-9"
        />
        <path
          d="m 348.33894,219.68582 -0.94722,0.0698 2.22105,0.92707 c 4.32016,1.8027 9.27318,4.5983 13.58005,7.66517 1.9587,1.39477 3.82734,2.87331 5.61619,4.4049 2.49972,-1.3857 5.45334,-2.86407 8.77673,-4.15995 -5.96653,-4.03269 -12.73629,-6.81584 -19.90886,-8.08995 -2.67367,-0.47495 -7.84518,-0.92724 -9.33794,-0.817 z"
          style="fill:#ffffff;stroke-width:0.802416"
          id="path22-3-1-4"
        />
      </g>
      <path
        d="m 235.12313,342.91397 c -0.58184,0.0121 -1.14242,0.0541 -1.67897,0.12713 -1.96081,3.82237 -2.7023,9.62408 -2.04173,15.97577 0.13526,1.3775 0.33486,2.76569 0.59686,4.14703 1.10718,5.59002 3.17856,10.78679 5.81101,14.58051 -3.49604,6.56858 -10.17467,17.54868 -17.71519,21.46122 0,0 -0.7696,3.95835 11.39878,8.32249 -1.37498,0.76921 -2.53989,1.10639 -2.53989,1.10639 0,0 18.37326,14.22094 45.34865,15.2647 0.0705,0.003 0.13975,0.008 0.21032,0.0103 0.0707,-0.002 0.13976,-0.008 0.21033,-0.0103 26.97536,-1.04378 45.34865,-15.2647 45.34865,-15.2647 0,0 -1.16491,-0.33718 -2.5399,-1.10639 12.16838,-4.36414 11.39878,-8.32249 11.39878,-8.32249 -7.54052,-3.91254 -14.21914,-14.89264 -17.71519,-21.46122 2.63246,-3.79372 4.70384,-8.99049 5.81102,-14.58051 0.26199,-1.38134 0.4616,-2.76953 0.59686,-4.14703 0.66057,-6.35169 -0.0809,-12.15341 -2.04173,-15.97577 -0.53656,-0.073 -1.09713,-0.11507 -1.67897,-0.12713 -4.07287,-0.0845 -9.18333,1.30768 -14.31127,3.93361 -1.35527,0.68476 -2.69459,1.44707 -3.99718,2.2748 -2.53779,1.63683 -4.89147,3.49659 -6.92619,5.47305 -3.33498,-2.11896 -8.46762,-3.37765 -13.94488,-3.4463 -0.0704,-8.8e-4 -0.13983,-0.006 -0.21033,-0.006 -0.0706,4.8e-4 -0.13984,0.005 -0.21032,0.006 -5.47725,0.0687 -10.6099,1.32734 -13.94488,3.4463 -2.03472,-1.97646 -4.38893,-3.83622 -6.92671,-5.47305 -1.30259,-0.82773 -2.64139,-1.59004 -3.99666,-2.2748 -5.12794,-2.62593 -10.2384,-4.01811 -14.31127,-3.93361 z m 0.69918,3.40548 c 0,0 19.04938,0.51347 25.78964,18.53634 0,0 -0.29354,-3.15028 -0.95291,-5.78776 0,0 1.97826,1.09863 3.00395,2.71043 0,0 -0.73246,-3.15012 -1.83141,-4.3956 0,0 4.61584,-1.97806 10.18387,1.97817 0,0 -0.21743,-3.15446 -1.51257,-4.34599 0.24568,-0.0307 1.89267,-0.38025 4.01009,-0.42943 2.11728,0.0492 3.76443,0.39871 4.0101,0.42943 -1.29514,1.19153 -1.51257,4.34599 -1.51257,4.34599 5.56804,-3.95623 10.18387,-1.97817 10.18387,-1.97817 -1.09895,1.24548 -1.83141,4.3956 -1.83141,4.3956 1.02569,-1.6118 3.00395,-2.71043 3.00395,-2.71043 -0.65938,2.63748 -0.95291,5.78776 -0.95291,5.78776 6.74025,-18.02287 25.78964,-18.53634 25.78964,-18.53634 4.39582,12.74788 -4.39612,28.86697 -4.39612,28.86697 l -2.78381,-3.95634 c 5.56804,-10.1104 4.54236,-20.22151 4.54236,-20.22151 0,0 -5.71494,-0.0729 -15.459,11.57604 0,0 -1.90482,6e-5 -4.83537,2.63756 0,0 4.32252,-2.93005 10.98951,3.2241 0,0 -3.80969,-1.31919 -5.49475,-1.24592 0,0 8.93866,1.90538 13.92059,15.23938 0,0 -3.73694,-4.90896 -11.64941,-6.6673 0,0 11.20959,5.78834 15.38562,12.30881 0,0 3.37042,7.61931 10.55026,12.23492 0,0 -5.49488,1.9786 -10.11049,3.22409 0,0 5.34858,0.36658 5.71489,-0.14625 0,0 -5.64197,4.98173 -13.70097,6.66678 0,0 3.44362,0.65932 4.02973,0.29301 0,0 -9.32271,6.23562 -25.61446,8.64495 9.39342,-3.56436 18.21491,-8.13181 18.21491,-8.13181 -1.24549,0.73266 -6.08128,-0.29352 -6.08128,-0.29352 11.06285,-2.12465 15.82539,-6.44715 15.82539,-6.44715 h -6.59391 c 4.24931,-2.78403 10.11462,-3.62562 10.11462,-3.62562 -6.21664,-2.95292 -12.0189,-9.79113 -12.0189,-9.79113 1.39875,1.45054 5.75055,2.27944 5.75055,2.27944 0,0 -5.23277,-4.66239 -8.96276,-7.7189 -3.72998,-3.05653 -6.57944,-3.83388 -6.57944,-3.83388 -5.64679,-1.45054 -7.46001,1.19166 -7.46001,1.19166 0.81103,-2.16274 1.13115,-2.6236 1.2423,-2.71973 -6.32432,2.62061 -7.61969,11.72641 -7.61969,11.72641 -0.98906,-0.696 -3.91966,-1.20871 -3.91966,-1.20871 0.51285,-10.91632 8.64547,-17.73018 8.64547,-17.73018 0,0 -4.32248,0.29263 -5.78776,3.29644 0,0 3.00371,-9.01161 5.12837,-12.74806 0,0 -4.54229,5.71508 -6.44715,10.69702 -1.90486,4.98195 1.02577,-7.18044 1.02577,-7.18044 0,0 -1.31919,2.12532 -1.90531,3.66386 -0.5861,1.53854 0.95247,-5.42174 3.58997,-8.57209 2.18233,-2.60667 -2.44859,1.09174 -5.94073,9.98802 -3.49213,-8.89635 -8.12306,-12.5947 -5.94072,-9.98802 2.6375,3.15035 4.17607,10.11063 3.58996,8.57209 -0.58611,-1.53854 -1.90531,-3.66386 -1.90531,-3.66386 0,0 2.93064,12.16239 1.02578,7.18044 -1.90486,-4.98194 -6.44715,-10.69702 -6.44715,-10.69702 2.12465,3.73645 5.12837,12.74806 5.12837,12.74806 -1.46528,-3.00381 -5.78776,-3.29644 -5.78776,-3.29644 0,0 8.13262,6.81386 8.64546,17.73018 0,0 -2.93059,0.51271 -3.91965,1.20871 0,0 -1.29537,-9.1058 -7.61969,-11.72641 0.11115,0.0961 0.43127,0.55699 1.2423,2.71973 0,0 -1.81374,-2.6422 -7.46053,-1.19166 0,0 -2.84894,0.77735 -6.57893,3.83388 -3.72998,3.05651 -8.96276,7.7189 -8.96276,7.7189 0,0 4.35181,-0.8289 5.75056,-2.27944 0,0 -5.80278,6.83821 -12.01942,9.79113 0,0 5.86583,0.84159 10.11514,3.62562 h -6.59391 c 0,0 4.76254,4.3225 15.82539,6.44715 0,0 -4.8358,1.02618 -6.08128,0.29352 0,0 8.82149,4.56745 18.21491,8.13181 -16.29175,-2.40933 -25.61446,-8.64495 -25.61446,-8.64495 0.58611,0.36631 4.02973,-0.29301 4.02973,-0.29301 -8.05901,-1.68505 -13.70098,-6.66678 -13.70098,-6.66678 0.36632,0.51283 5.7149,0.14625 5.7149,0.14625 -4.61561,-1.24549 -10.11049,-3.22409 -10.11049,-3.22409 7.17984,-4.61561 10.54974,-12.23492 10.54974,-12.23492 4.17603,-6.52047 15.38614,-12.30881 15.38614,-12.30881 -7.91248,1.75834 -11.64942,6.6673 -11.64942,6.6673 4.98193,-13.334 13.9206,-15.23938 13.9206,-15.23938 -1.68506,-0.0733 -5.49475,1.24592 -5.49475,1.24592 6.66699,-6.15415 10.98951,-3.2241 10.98951,-3.2241 -2.93055,-2.6375 -4.83537,-2.63756 -4.83537,-2.63756 -9.74407,-11.64892 -15.459,-11.57604 -15.459,-11.57604 0,0 -1.02568,10.11111 4.54236,20.22151 l -2.78433,3.95634 c 0,0 -8.79142,-16.11909 -4.3956,-28.86697 z"
        style="fill:none;stroke:#ffffff;stroke-width:0.8;stroke-dasharray:none;stroke-opacity:1"
        id="path31-4-8"
      />
    </g>
  </g>
</svg>
