<?xml version="1.0" encoding="UTF-8" standalone="no" ?>
<!-- Created with Inkscape (http://www.inkscape.org/) -->
<svg
  width="245.71613mm"
  height="245.71536mm"
  viewBox="0 0 245.71613 245.71536"
  version="1.1"
  id="svg1"
  inkscape:export-filename="beach_logo_blue.svg"
  inkscape:export-xdpi="96"
  inkscape:export-ydpi="96"
  xmlns:inkscape="http://www.inkscape.org/namespaces/inkscape"
  xmlns:sodipodi="http://sodipodi.sourceforge.net/DTD/sodipodi-0.dtd"
  xmlns:xlink="http://www.w3.org/1999/xlink"
  xmlns="http://www.w3.org/2000/svg"
  xmlns:svg="http://www.w3.org/2000/svg"
>
  <sodipodi:namedview
    id="namedview1"
    pagecolor="#ffffff"
    bordercolor="#000000"
    borderopacity="0.25"
    inkscape:showpageshadow="2"
    inkscape:pageopacity="0.0"
    inkscape:pagecheckerboard="0"
    inkscape:deskcolor="#d1d1d1"
    inkscape:document-units="mm"
  />
  <defs id="defs1" />
  <g inkscape:label="Calque 1" inkscape:groupmode="layer" id="layer1" transform="translate(18.977984,-29.190633)">
    <g id="g4-9-0" transform="matrix(1.508969,0,0,1.508969,-81.997192,339.85024)" style="stroke:none">
      <g id="g3-1-11" style="stroke:none">
        <path
          d="m 79.998077,-67.403986 c 30.805353,23.849419 75.112003,18.210557 98.961493,-12.594744 23.84961,-30.80519 18.21104,-75.11186 -12.59411,-98.96156 -30.80533,-23.84972 -75.11224,-18.21097 -98.961835,12.59451 -23.849732,30.80533 -18.21099,75.112238 12.59444,98.961839 z"
          style="display:inline;fill:none;fill-opacity:0.253898;stroke:none;stroke-width:0.280554;stroke-opacity:1"
          id="path2-3-8"
        />
        <path
          d="m 72.592107,-159.04135 c 19.950521,-27.93961 58.773303,-34.41612 86.712983,-14.46567 27.93974,19.95034 34.41652,58.77307 14.46624,86.712873 -19.95042,27.939872 -58.77342,34.416556 -86.713222,14.465968 C 59.118229,-92.2786 52.641536,-131.10158 72.592081,-159.04137 Z"
          style="display:inline;fill:none;fill-opacity:0.253898;stroke:none;stroke-width:0.247233;stroke-opacity:1"
          id="path2-6-2-2"
        />
      </g>
      <text
        xml:space="preserve"
        style="font-style:normal;font-variant:normal;font-weight:normal;font-stretch:normal;font-size:14.1111px;line-height:0;font-family:Montserrat;-inkscape-font-specification:Montserrat;letter-spacing:1.32292px;fill:#000000;fill-opacity:1;stroke:none;stroke-width:0;stroke-dasharray:none;stroke-opacity:1;paint-order:normal"
        id="text99-95-2"
      ><textPath
          xlink:href="#path2-3-8"
          id="textPath2-83-5"
          style="font-size:14.1111px;line-height:0;letter-spacing:1.32292px;fill:#000000;fill-opacity:1;stroke:none"
          dx="0"
        >NOGENTAIS</textPath></text>
      <text
        xml:space="preserve"
        style="font-style:normal;font-variant:normal;font-weight:normal;font-stretch:normal;font-size:14.1111px;font-family:Montserrat;-inkscape-font-specification:Montserrat;letter-spacing:1.32292px;fill:#000000;fill-opacity:1;stroke:none;stroke-width:0.7;stroke-dasharray:none;stroke-opacity:1"
        id="text3-2-15"
      ><textPath
          xlink:href="#path2-6-2-2"
          id="textPath3-78-2"
          style="font-size:14.1111px;letter-spacing:1.32292px;fill:#000000;fill-opacity:1;stroke:none"
        >VOLLEY CLUB</textPath></text>
      <text
        xml:space="preserve"
        style="font-style:normal;font-variant:normal;font-weight:normal;font-stretch:normal;font-size:11.2889px;line-height:0;font-family:Montserrat;-inkscape-font-specification:Montserrat;letter-spacing:1.32292px;fill:#000000;fill-opacity:1;stroke:none;stroke-width:0.7;stroke-dasharray:none;stroke-opacity:1"
        x="50.468529"
        y="-120.50598"
        id="text5-2-6"
      ><tspan
          sodipodi:role="line"
          id="tspan5-0-9"
          style="font-size:11.2889px;fill:#000000;fill-opacity:1;stroke:none;stroke-width:0.7"
          x="50.468529"
          y="-120.50598"
        >19</tspan></text>
      <text
        xml:space="preserve"
        style="font-style:normal;font-variant:normal;font-weight:normal;font-stretch:normal;font-size:11.2889px;line-height:0;font-family:Montserrat;-inkscape-font-specification:Montserrat;letter-spacing:1.32292px;fill:#000000;fill-opacity:1;stroke:none;stroke-width:0.7;stroke-dasharray:none;stroke-opacity:1"
        x="181.91141"
        y="-120.50598"
        id="text5-8-1-0"
      ><tspan
          sodipodi:role="line"
          id="tspan5-5-7-3"
          style="font-size:11.2889px;fill:#000000;fill-opacity:1;stroke:none;stroke-width:0.7"
          x="181.91141"
          y="-120.50598"
        >72</tspan></text>
    </g>
    <g id="g33-8-6" transform="matrix(1.508969,0,0,1.508969,-437.7589,-82.963148)" style="fill:#000000;fill-opacity:1">
      <g id="g29-8-8-1" style="fill:#000000;fill-opacity:1" transform="translate(10.431928,-115.9006)">
        <path
          d="m 339.73585,236.00213 c 3.89386,-1.21491 12.53643,-2.99141 21.963,1.16737 0,0 1.57623,-1.12733 4.0256,-2.63136 -3.389,-2.8111 -7.09192,-5.39996 -11.0169,-7.64863 -2.9565,-1.69385 -6.03752,-3.08022 -9.49555,-4.27261 -2.54683,-0.87819 -6.07427,-1.69343 -7.3272,-1.69343 -1.85984,0 -8.056,2.04071 -11.73985,3.86643 -2.55384,1.26567 -5.62469,2.98717 -5.6255,3.15381 -3.7e-4,0.0662 0.73991,0.29414 1.64486,0.50643 1.91937,0.45024 6.27137,1.90795 8.523,2.8546 2.18935,0.92046 6.45216,3.15166 9.04854,4.69739 z"
          style="fill:#000000;fill-opacity:1;stroke-width:0.802416"
          id="path29-8-1-2"
        />
        <path
          d="m 296.99427,277.83679 c 4.46593,-4.08647 10.32517,-10.22155 11.01329,-14.8854 0,0 -3.11065,-7.19359 -5.25395,-15.88792 l -0.95601,1.93735 c -4.44841,9.01373 -5.97362,19.08686 -4.80333,28.83597 z"
          style="fill:#000000;fill-opacity:1;stroke-width:0.802416"
          id="path28-7-8-7"
        />
        <path
          d="m 310.44048,301.9516 c -2.11384,-0.97746 -4.20454,-2.04283 -6.23683,-3.21996 1.52361,2.49956 3.2449,4.89362 5.21261,7.11843 0.79343,0.8971 1.46564,1.61451 1.49344,1.59421 0.0278,-0.0202 -0.10795,-1.41479 -0.30179,-3.09955 -0.077,-0.66905 -0.1148,-1.57253 -0.16743,-2.39313 z"
          style="fill:#000000;fill-opacity:1;stroke-width:0.802416"
          id="path27-2-5-1"
        />
        <path
          d="m 331.20046,308.89071 c -5.33236,-1.23413 -11.32706,-2.96803 -17.29662,-5.42396 0.009,0.0893 0.0182,0.28895 0.0263,0.36225 0.48413,4.34172 0.91772,7.03408 1.20665,7.49153 0.36608,0.57961 3.65704,3.0515 5.98413,4.49482 2.18274,1.35379 6.00671,3.27096 8.52713,4.27519 2.06321,0.82207 2.54761,0.94958 2.54661,0.66973 -5.4e-4,-0.0876 -0.19139,-1.44878 -0.42426,-3.02514 -0.43367,-2.9355 -0.61546,-5.89528 -0.56999,-8.84442 z"
          style="fill:#000000;fill-opacity:1;stroke-width:0.802416"
          id="path26-5-4-6"
        />
        <path
          d="m 392.60033,297.97251 c -8.97777,5.98688 -22.83522,12.08399 -43.41699,13.78934 0,0 -6.05884,-0.3991 -14.52056,-2.11977 -0.01,5.15373 0.19119,7.2874 1.04851,11.05669 l 0.32711,1.43764 1.63453,0.34261 c 2.50188,0.52376 4.29725,0.79994 6.458,0.99426 4.45279,0.40044 11.06241,-0.0517 15.67708,-1.0728 12.07429,-2.67176 22.78665,-9.60511 30.43845,-19.70009 1.09003,-1.43808 3.34756,-4.95086 3.24683,-5.05189 -0.0138,-0.0138 -0.61254,0.22557 -0.89296,0.32401 z"
          style="fill:#000000;fill-opacity:1;stroke-width:0.802416"
          id="path25-4-8-0"
        />
        <path
          d="m 390.21081,267.60795 c 2.18293,3.60437 5.50194,8.39181 9.63765,12.23388 0.10412,-0.60231 0.22093,-1.19521 0.30954,-1.80815 0.40988,-2.83519 0.34804,-10.44396 -0.10903,-13.43846 -0.60388,-3.95635 -0.35998,-3.75585 -2.4629,-2.02933 -2.24684,1.84467 -4.74728,3.53017 -7.37526,5.04206 z"
          style="fill:#000000;fill-opacity:1;stroke-width:0.802416"
          id="path24-5-3-5"
        />
        <path
          d="m 393.27884,245.27237 c -0.70213,5.31659 -2.19691,10.95286 -5.15163,15.93494 0.0926,0.40569 0.19742,0.81377 0.2713,1.21543 0.2047,1.1128 0.46075,2.02313 0.56896,2.02313 0.7491,0 9.0934,-6.33671 9.4015,-7.13961 0.18516,-0.48253 -1.32196,-4.5578 -2.91559,-7.88324 -0.76274,-1.59163 -1.46045,-2.91114 -2.17454,-4.15065 z"
          style="fill:#000000;fill-opacity:1;stroke-width:0.802416"
          id="path23-6-7-8"
        />
        <path
          d="m 348.33894,219.68582 -0.94722,0.0698 2.22105,0.92707 c 4.32016,1.8027 9.27318,4.5983 13.58005,7.66517 1.9587,1.39477 3.82734,2.87331 5.61619,4.4049 2.49972,-1.3857 5.45334,-2.86407 8.77673,-4.15995 -5.96653,-4.03269 -12.73629,-6.81584 -19.90886,-8.08995 -2.67367,-0.47495 -7.84518,-0.92724 -9.33794,-0.817 z"
          style="fill:#000000;fill-opacity:1;stroke-width:0.802416"
          id="path22-1-7-5"
        />
      </g>
      <g
        id="g5-1-1-5"
        style="fill:#000000;fill-opacity:1"
        transform="matrix(0.58539765,0,0,0.58539765,297.7046,63.662277)"
      >
        <path
          d="m 37.328515,83.221409 c -0.993921,0.02062 -1.952002,0.09278 -2.868559,0.217557 -3.34955,6.52953 -4.616057,16.43959 -3.487643,27.289804 0.231056,2.35311 0.572543,4.72466 1.020093,7.08433 1.891332,9.54911 5.429135,18.42642 9.926009,24.907 -5.972092,11.22073 -17.380671,29.97777 -30.261718,36.66133 0,0 -1.314353,6.76119 19.472196,14.21619 -2.348808,1.314 -4.33927,1.89032 -4.33927,1.89032 0,0 31.386598,24.29241 77.467097,26.07541 0.12036,0.005 0.23808,0.0132 0.35864,0.0176 0.12074,-0.004 0.23861,-0.0129 0.35915,-0.0176 46.08046,-1.78303 77.4671,-26.07541 77.4671,-26.07541 0,0 -1.99046,-0.57632 -4.33927,-1.89032 20.78655,-7.455 19.4722,-14.21619 19.4722,-14.21619 -12.88106,-6.68356 -24.28963,-25.4406 -30.26172,-36.66133 4.49688,-6.48058 8.03468,-15.35789 9.92601,-24.907 0.44754,-2.35967 0.78904,-4.73122 1.02009,-7.08433 1.12842,-10.850214 -0.13809,-20.760282 -3.48764,-27.289804 -0.91656,-0.124758 -1.87464,-0.196958 -2.86856,-0.217557 -6.95745,-0.144358 -15.6868,2.233753 -24.44657,6.719486 -2.31512,1.169733 -4.60286,2.471592 -6.828,3.885551 -4.33516,2.796098 -8.35605,5.973538 -11.83184,9.349814 -5.69696,-3.619703 -14.46531,-5.769698 -23.8218,-5.886976 -0.12023,-0.0015 -0.23822,-0.01002 -0.35864,-0.01085 -0.12059,8.29e-4 -0.23875,0.0093 -0.35915,0.01085 -9.356479,0.117295 -18.124824,2.26727 -23.821793,5.886976 C 76.959148,99.799984 72.938249,96.622552 68.603091,93.826446 66.37795,92.412489 64.090209,91.110626 61.775084,89.940895 53.015313,85.455159 44.285963,83.077056 37.328515,83.221409 Z m 1.194242,5.817732 c 0,0 32.540679,0.876791 44.054675,31.664219 0,0 -0.500921,-5.38179 -1.627291,-9.88725 0,0 3.379341,1.87738 5.13147,4.63072 0,0 -1.251727,-5.38151 -3.129008,-7.5091 0,0 7.885313,-3.37909 17.396867,3.37912 0,0 -0.371937,-5.38894 -2.584337,-7.42435 0.41968,-0.0525 3.233667,-0.64878 6.850737,-0.73278 3.61682,0.084 6.43057,0.6803 6.85023,0.73278 -2.2124,2.03541 -2.58434,7.42435 -2.58434,7.42435 9.51156,-6.75821 17.39687,-3.37912 17.39687,-3.37912 -1.87728,2.12759 -3.129,7.5091 -3.129,7.5091 1.75213,-2.75334 5.13147,-4.63072 5.13147,-4.63072 -1.12638,4.50546 -1.62729,9.88725 -1.62729,9.88725 11.51399,-30.787429 44.05467,-31.664219 44.05467,-31.664219 7.50914,21.776469 -7.5091,49.311199 -7.5091,49.311199 l -4.75578,-6.75824 c 9.51155,-17.271 7.75921,-34.543112 7.75921,-34.543112 0,0 -9.76246,-0.124677 -26.40769,19.774502 0,0 -3.25387,1.8e-4 -8.25996,4.50567 0,0 7.38418,-5.00562 18.77302,5.50716 0,0 -6.50801,-2.25319 -9.38651,-2.12804 0,0 15.26908,3.25483 23.77943,26.03252 0,0 -6.38314,-8.38531 -19.89956,-11.38897 0,0 19.14896,9.88757 26.28263,21.02611 0,0 5.75725,13.01595 18.02215,20.90053 0,0 -9.38671,3.37957 -17.27129,5.50716 0,0 9.13643,0.62592 9.76219,-0.25011 0,0 -9.63752,8.51049 -23.40425,11.38896 0,0 5.8826,1.1265 6.88381,0.50075 0,0 -15.92573,10.65185 -43.75598,14.76757 16.04623,-6.08878 31.11541,-13.89166 31.11541,-13.89166 -2.1276,1.25155 -10.388,-0.50074 -10.388,-0.50074 18.89803,-3.62942 27.0335,-11.0138 27.0335,-11.0138 h -11.26392 c 7.25885,-4.75579 17.27854,-6.1929 17.27854,-6.1929 -10.61954,-5.0443 -20.53157,-16.72611 -20.53157,-16.72611 2.3894,2.47788 9.82318,3.89433 9.82318,3.89433 0,0 -8.93846,-7.96501 -15.31018,-13.18627 -6.37172,-5.22129 -11.23911,-6.54896 -11.23911,-6.54896 -9.64608,-2.47788 -12.74392,2.03554 -12.74392,2.03554 1.38543,-3.69448 1.93247,-4.48201 2.12235,-4.64623 -10.80347,4.47664 -13.01626,20.03185 -13.01626,20.03185 -1.68956,-1.18895 -6.69572,-2.06499 -6.69572,-2.06499 0.87607,-18.64772 14.76861,-30.28755 14.76861,-30.28755 0,0 -7.3842,0.50045 -9.88725,5.63169 0,0 5.13128,-15.39419 8.76071,-21.77696 0,0 -7.75983,9.76241 -11.0138,18.27278 -3.25396,8.51038 1.75234,-12.2654 1.75234,-12.2654 0,0 -2.25284,3.62982 -3.25406,6.25802 -1.00121,2.6282 1.62695,-9.26147 6.13244,-14.64303 3.72795,-4.45283 -4.1828,1.865 -10.14822,17.062 -5.965417,-15.19713 -13.87669,-21.51484 -10.148724,-17.062 4.505487,5.38156 7.133644,17.27123 6.132434,14.64303 -1.001227,-2.6282 -3.254054,-6.25802 -3.254054,-6.25802 0,0 5.006304,20.77578 1.752337,12.2654 -3.253957,-8.51037 -11.01379,-18.27278 -11.01379,-18.27278 3.629421,6.38277 8.760703,21.77696 8.760703,21.77696 -2.503047,-5.13124 -9.887249,-5.63169 -9.887249,-5.63169 0,0 13.892533,11.63983 14.768603,30.28755 0,0 -5.006154,0.87604 -6.695711,2.06499 0,0 -2.212792,-15.55521 -13.01626,-20.03185 0.189883,0.16422 0.736924,0.95175 2.122351,4.64623 0,0 -3.097842,-4.51342 -12.743925,-2.03554 0,0 -4.867383,1.32767 -11.239107,6.54896 -6.371725,5.22126 -15.310177,13.18627 -15.310177,13.18627 0,0 7.433777,-1.41645 9.823173,-3.89433 0,0 -9.912023,11.68181 -20.531563,16.72611 0,0 10.019687,1.43711 17.278532,6.1929 H 40.149531 c 0,0 8.135466,7.38438 27.033492,11.0138 0,0 -8.260404,1.75229 -10.387996,0.50074 0,0 15.069183,7.80288 31.115413,13.89166 -27.830248,-4.11572 -43.755985,-14.76757 -43.755985,-14.76757 1.001217,0.62575 6.883817,-0.50075 6.883817,-0.50075 -13.766732,-2.87847 -23.404256,-11.38896 -23.404256,-11.38896 0.62576,0.87603 9.762195,0.25011 9.762195,0.25011 -7.884583,-2.12759 -17.271297,-5.50716 -17.271297,-5.50716 12.264908,-7.88458 18.022155,-20.90053 18.022155,-20.90053 7.133672,-11.13854 26.282634,-21.02611 26.282634,-21.02611 -13.516428,3.00366 -19.899561,11.38897 -19.899561,11.38897 8.510344,-22.77769 23.779427,-26.03252 23.779427,-26.03252 -2.878498,-0.12515 -9.386507,2.12804 -9.386507,2.12804 11.388841,-10.51278 18.773014,-5.50716 18.773014,-5.50716 -5.006084,-4.50549 -8.25996,-4.50567 -8.25996,-4.50567 C 52.790885,96.924311 43.028425,97.048988 43.028425,97.048988 c 0,0 -1.752342,17.272112 7.759216,34.543112 l -4.755782,6.75824 c 0,0 -15.018231,-27.53473 -7.509102,-49.311199 z M 75.74064,131.96365 c -7.594552,0.12026 -16.295129,5.55832 -16.295129,5.55832 0,0 14.425295,-6.3718 25.044983,-1.41593 -2.074157,-3.15273 -5.297784,-4.19709 -8.749854,-4.14239 z m 57.74996,0 c -3.45206,-0.0547 -6.67571,0.98967 -8.74986,4.14239 10.61965,-4.95585 25.04499,1.41593 25.04499,1.41593 0,0 -8.70061,-5.43806 -16.29513,-5.55832 z m -56.522644,22.01881 c 5.816226,-2.1e-4 10.531573,4.87339 10.531656,10.88513 1.93e-4,6.01193 -4.715235,10.88585 -10.531656,10.88564 -5.81622,-9e-5 -10.531334,-4.87392 -10.531141,-10.88564 8.4e-5,-6.01153 4.715116,-10.88504 10.531141,-10.88513 z m 55.295324,0 c 5.81603,9e-5 10.53105,4.8736 10.53114,10.88513 1.9e-4,6.01172 -4.71492,10.88555 -10.53114,10.88564 -5.81642,2.1e-4 -10.53184,-4.87371 -10.53165,-10.88564 8e-5,-6.01174 4.71542,-10.88534 10.53165,-10.88513 z m -27.64792,15.16704 c 16.19498,0.14731 29.26836,10.13312 29.2685,22.44462 2.3e-4,12.3117 -13.07325,22.29783 -29.2685,22.44514 -16.195036,-0.1475 -29.268213,-10.13356 -29.267977,-22.44514 1.39e-4,-12.31138 13.073202,-22.29713 29.267977,-22.44462 z m 5.1e-4,11.60911 c -0.12207,0.003 -0.23812,0.023 -0.35915,0.0294 -5.707757,0.30356 -10.234989,4.09277 -10.235025,8.77053 0.06477,4.423 4.180178,8.1249 9.627315,8.65993 -1.60446,4.5963 -4.711337,5.30097 -4.711337,5.30097 0,0 -3.495637,1.12838 -4.734594,-0.11059 -1.238955,-1.23892 -1.703255,-0.28783 -1.703255,-0.28783 0,0 -1.283376,3.4295 4.336172,3.3631 3.098307,-0.0367 5.867974,-1.8442 7.779874,-3.46801 1.9119,1.62375 4.68123,3.43136 7.77937,3.46801 5.61953,0.0664 4.33617,-3.3631 4.33617,-3.3631 0,0 -0.46429,-0.95109 -1.70325,0.28783 -1.23895,1.23897 -4.7346,0.11059 -4.7346,0.11059 0,0 -3.10688,-0.70468 -4.71134,-5.30097 5.44712,-0.53503 9.56255,-4.23694 9.62732,-8.65993 -4e-5,-4.67775 -4.52728,-8.46697 -10.23503,-8.77053 -0.12086,-0.006 -0.23674,-0.0262 -0.35864,-0.0294 z m 0,1.74718 c 2.707,0.0724 4.86254,0.89247 4.86224,1.92029 -4.3e-4,1.02763 -2.15577,1.84742 -4.86224,1.91978 -2.70672,-0.0723 -4.862307,-0.89208 -4.862747,-1.91978 -2.9e-4,-1.02789 2.155497,-1.84801 4.862747,-1.92029 z"
          style="fill:#000000;fill-opacity:1;stroke-width:1.5"
          id="path51-6-5-8"
        />
        <path
          d="m 77.037675,156.1021 a 8.9825687,8.9825687 0 0 0 -8.982397,8.98291 8.9825687,8.9825687 0 0 0 8.982397,8.9824 8.9825687,8.9825687 0 0 0 8.982397,-8.9824 8.9825687,8.9825687 0 0 0 -8.982397,-8.98291 z m -1.239201,1.51309 a 3.8496721,3.8496721 0 0 1 3.849894,3.84989 3.8496721,3.8496721 0 0 1 -3.849894,3.84938 3.8496721,3.8496721 0 0 1 -3.849377,-3.84938 3.8496721,3.8496721 0 0 1 3.849377,-3.84989 z m -6.504512,7.78815 c 0,-0.19076 8.672801,12.01405 16.018143,0.35398 -8.053331,16.01817 -16.018143,-0.35398 -16.018143,-0.35398 z"
          style="fill:#000000;fill-opacity:1;stroke-width:1.65489"
          id="path4-8-8-0"
        />
        <path
          d="m 132.37332,156.1021 a 8.9825687,8.9825687 0 0 0 -8.98292,8.98291 8.9825687,8.9825687 0 0 0 8.98292,8.9824 8.9825687,8.9825687 0 0 0 8.98239,-8.9824 8.9825687,8.9825687 0 0 0 -8.98239,-8.98291 z m 0.96428,1.3224 a 3.8496721,3.8496721 0 0 1 3.84938,3.84938 3.8496721,3.8496721 0 0 1 -3.84938,3.84989 3.8496721,3.8496721 0 0 1 -3.8499,-3.84989 3.8496721,3.8496721 0 0 1 3.8499,-3.84938 z m 7.57111,8.3783 c 0,0 -7.96481,16.37215 -16.01814,0.35398 7.34534,11.66007 16.01814,-0.54474 16.01814,-0.35398 z"
          style="fill:#000000;fill-opacity:1;stroke-width:1.65489"
          id="path5-1-3-4"
        />
      </g>
    </g>
    <path
      d="M 103.87968,29.190632 A 122.85778,122.85778 0 0 0 -18.977984,152.0483 122.85778,122.85778 0 0 0 103.87968,274.90598 122.85778,122.85778 0 0 0 226.73814,152.0483 122.85778,122.85778 0 0 0 103.87968,29.190632 Z m 0,5.875653 A 116.98197,116.98197 0 0 1 220.8617,152.0483 116.98197,116.98197 0 0 1 103.87968,269.03033 116.98197,116.98197 0 0 1 -13.10233,152.0483 116.98197,116.98197 0 0 1 103.87968,35.066285 Z"
      style="fill:#000000;fill-opacity:1;stroke-width:1.36103"
      id="path3-4"
    />
    <path
      d="M 103.87968,65.174427 A 86.873567,86.873567 0 0 0 17.006596,152.0483 86.873567,86.873567 0 0 0 103.87968,238.92218 86.873567,86.873567 0 0 0 190.75356,152.0483 86.873567,86.873567 0 0 0 165.60016,90.925923 l 0.8983,7.09212 A 82.718744,82.718744 0 0 1 186.59888,152.0483 82.718744,82.718744 0 0 1 103.87968,234.76673 82.718744,82.718744 0 0 1 21.16127,152.0483 82.718744,82.718744 0 0 1 41.943999,97.300633 l 0.846063,-6.68116 5.911522,-0.0765 A 82.718744,82.718744 0 0 1 103.87968,69.329811 82.718744,82.718744 0 0 1 156.3613,88.270693 l 6.56966,0.0849 A 86.873567,86.873567 0 0 0 103.87968,65.174427 Z"
      style="fill:#000000;fill-opacity:1;stroke-width:1.57755"
      id="path10-1"
    />
  </g>
</svg>
