<?xml version="1.0" encoding="UTF-8" standalone="no"?>
<!-- Created with Inkscape (http://www.inkscape.org/) -->

<svg
   width="212.35474mm"
   height="212.35542mm"
   viewBox="0 0 212.35474 212.35542"
   version="1.1"
   id="svg1"
   inkscape:export-filename="logo_couleur.svg"
   inkscape:export-xdpi="96"
   inkscape:export-ydpi="96"
   xmlns:inkscape="http://www.inkscape.org/namespaces/inkscape"
   xmlns:sodipodi="http://sodipodi.sourceforge.net/DTD/sodipodi-0.dtd"
   xmlns:xlink="http://www.w3.org/1999/xlink"
   xmlns="http://www.w3.org/2000/svg"
   xmlns:svg="http://www.w3.org/2000/svg">
  <sodipodi:namedview
     id="namedview1"
     pagecolor="#ffffff"
     bordercolor="#000000"
     borderopacity="0.25"
     inkscape:showpageshadow="2"
     inkscape:pageopacity="0.0"
     inkscape:pagecheckerboard="0"
     inkscape:deskcolor="#d1d1d1"
     inkscape:document-units="mm" />
  <defs
     id="defs1" />
  <g
     inkscape:label="Calque 1"
     inkscape:groupmode="layer"
     id="layer1"
     transform="translate(-2.1996353,-39.67504)">
    <path
       d="m 145.04115,128.16232 c -2.05626,0.10547 -1.55203,2.58987 -1.55203,2.58987 -6.9374,0.33036 -1.98235,3.30421 -1.98235,3.30421 v 0.26104 L 36.995419,157.68967 c 0.1514,0.77623 0.31548,1.55001 0.49204,2.32091 l 74.394651,-17.21472 v 5.20824 l -74.192151,12.76353 c 0.64213,3.28298 1.50909,6.51821 2.59464,9.68238 0.46085,1.09334 0.94828,2.17528 1.46185,3.24488 1.2953,3.22812 2.81964,6.35979 4.56116,9.37072 l 67.811571,1.55123 c 0,0 -42.115851,1.41689 -60.708771,7.87171 -0.27687,-0.14022 -0.5314,-0.28414 -0.80212,-0.42559 0.12966,0.18729 0.26017,0.37399 0.39157,0.56007 13.87677,16.56999 34.38017,26.14418 55.993351,26.14642 24.09606,-0.0107 46.63754,-11.90489 60.24682,-31.78975 1.93706,-2.81919 3.67376,-5.77103 5.19716,-8.83361 -4.3944,0.99309 -9.5613,2.61659 -15.44912,5.22961 -1.46278,0.64918 -2.96713,1.35978 -4.51449,2.13661 -0.33729,0.16884 -0.65393,0.30577 -0.99513,0.48095 -6.50992,3.35264 -13.72856,7.86978 -21.5544,13.96275 -12.31843,9.59076 -24.34615,12.51565 -34.718991,12.35455 -17.29723,-0.25026 -30.00497,-9.09123 -31.80161,-9.96639 0,0 0.15624,0.0603 0.16849,0.0657 -0.0196,-0.0107 -0.0964,-0.0571 -0.11389,-0.0657 0,0 11.36573,4.96855 26.93746,4.91794 12.119841,-0.0487 26.780421,-3.14135 40.614651,-13.98015 3.12953,-2.45191 6.54004,-4.6593 10.15781,-6.68037 0.19514,-0.1093 0.39999,-0.2099 0.59645,-0.318 1.54803,-0.84959 3.13072,-1.66774 4.75814,-2.44513 0.4573,-0.2189 0.92807,-0.42508 1.39145,-0.63837 7.1806,-3.30533 15.08005,-5.9455 23.52174,-8.02832 0.88494,-0.21835 1.77877,-0.42735 2.67531,-0.63363 0.11358,-0.28038 0.22536,-0.56149 0.3354,-0.84325 0.44974,-1.07134 0.87389,-2.1533 1.27201,-3.24488 0.30364,-0.8615 0.59112,-1.72866 0.86223,-2.60095 1.36119,-4.26928 2.32669,-8.65508 2.88417,-13.1013 l -5.13231,-1.90563 v -5.71056 l 5.59822,2.29879 c 0.0386,-0.83459 0.0629,-1.66982 0.0727,-2.50524 L 152.29972,134.9922 v -0.16454 l 1.54174,-1.98236 c -4.78664,-3.71301 -7.39343,-4.75511 -8.80037,-4.683 z m -3.53438,7.77912 v 6.96675 l -2.22442,0.38286 v -6.83542 z m -4.0723,0.94214 v 6.72547 l -5.15604,0.88676 v -6.41933 z m 14.86532,0.37891 1.70945,0.70246 v 6.58782 l -1.70945,-0.63441 z m -21.86371,1.24037 v 6.30937 l -4.17751,0.71907 v -6.06257 z m 25.42104,0.22069 3.11594,1.27912 v 6.39323 l -3.11594,-1.15651 z m -31.45514,1.17551 v 5.95181 l -4.49154,0.77206 v -5.68444 z m 36.41816,0.86223 3.2504,1.33449 v 6.1931 l -3.2504,-1.20713 z m -42.77341,0.60831 v 5.5745 l -4.29221,0.73804 v -5.31898 z m 47.87091,1.4848 3.48376,1.43099 v 5.98268 l -3.48376,-1.29336 z m 5.33085,2.18883 3.23695,1.32974 v 5.78333 l -3.23695,-1.20161 z m -9.25761,11.59039 c 6.53509,-0.27231 10.20164,4.59732 12.28414,10.39671 0.14374,0.40023 0.24646,0.81691 0.37654,1.22374 -4.33182,0.50775 -8.6505,1.21713 -12.92172,2.19594 h -12.85765 c 0.23209,-3.48785 1.29029,-8.07814 4.93692,-11.01847 1.92778,-1.55441 4.54463,-2.64636 8.18177,-2.79792 z m -47.24359,0.38998 c 0.46883,0.002 0.94525,0.0182 1.42941,0.0499 3.59848,0.23469 6.65401,1.20876 9.25918,2.63577 4.73469,2.59345 7.90743,6.695 10.06923,10.74082 H 93.870009 c 1.24993,-2.05893 2.74645,-4.16349 4.59993,-6.10212 3.926531,-4.10694 9.244901,-7.35113 16.277351,-7.32431 z m -52.313421,6.21762 c 5.09001,0.0784 9.10406,2.34145 12.18684,5.20903 0.68947,0.64135 1.27793,1.3213 1.86212,1.99976 h -27.79417 c 2.58898,-3.73551 6.84115,-7.31501 13.74521,-7.20879 z m 82.447501,12.66622 c -2.60527,1.10748 -5.18328,2.29226 -7.69371,3.65858 -17.31351,-2.10277 -34.57185,-2.69192 -34.57185,-2.69192 z"
       style="display:inline;fill:#000000;stroke-width:0.300303"
       id="path15-5" />
    <path
       d="M 108.37665,41.97119 A 103.88135,103.88135 0 0 0 4.4957852,145.85276 103.88135,103.88135 0 0 0 108.37665,249.73431 103.88135,103.88135 0 0 0 212.25822,145.85276 103.88135,103.88135 0 0 0 108.37665,41.97119 Z m 0,30.836385 a 73.04511,73.04511 0 0 1 73.04519,73.045185 73.04511,73.04511 0 0 1 -73.04519,73.04517 73.04511,73.04511 0 0 1 -73.045171,-73.04517 73.04511,73.04511 0 0 1 73.045171,-73.045185 z"
       style="display:inline;fill:none;fill-opacity:1;stroke:#000000;stroke-width:4.5923;stroke-dasharray:none;stroke-opacity:1"
       id="path6-3-9" />
    <g
       id="g82-8-9"
       style="fill:#000000;fill-opacity:1"
       transform="matrix(1.3348856,0,0,1.3348856,-31.786056,-52.377731)">
      <path
         d="m 150.0141,143.5995 4.80126,1.98386 c -0.0993,-1.69702 -0.27801,-3.3938 -0.55449,-5.08341 -0.42091,-2.57229 -1.65741,-7.3996 -2.23242,-8.71626 l -0.36484,-0.83509 -0.13229,2.30632 c -0.18175,3.16802 -0.72629,6.77861 -1.51722,10.34458 z"
         style="fill:#000000;fill-opacity:1;stroke-width:0.770202"
         id="path82-4-5" />
      <path
         d="m 133.49159,133.39703 c 0.25524,0.12798 0.51226,0.25834 0.80047,0.42788 5.95038,3.50021 7.14622,4.5795 7.14622,4.5795 l -0.96262,1.25425 6.535,2.70009 c 0.18428,-0.83535 0.36649,-1.67166 0.52194,-2.51509 0.5928,-3.21634 0.86736,-6.44764 0.84646,-9.95856 -0.0154,-2.58577 -0.39959,-6.03913 -0.7984,-7.17373 -0.59196,-1.68416 -4.41253,-6.64568 -7.23832,-9.40046 -1.95898,-1.90976 -4.49501,-4.14249 -4.64623,-4.09019 -0.0601,0.0207 -0.0312,0.76351 0.0646,1.65055 0.20319,1.8814 0.26872,6.28608 0.12815,8.62635 -0.15529,2.58532 -0.99757,8.27495 -1.6061,10.8474 -0.24432,1.03282 -0.51095,2.0484 -0.79117,3.05201 z"
         style="fill:#000000;fill-opacity:1;stroke-width:0.770202"
         id="path81-2-2"
         sodipodi:nodetypes="cccccsssscsssc" />
      <path
         d="m 103.32083,98.652376 c -17.068926,0.574358 -33.271841,10.183314 -41.706503,25.310604 -0.559831,1.00403 -0.995606,1.84061 -0.968416,1.85931 0.02719,0.0188 1.247025,-0.54809 2.710945,-1.25987 4.062323,-1.97515 12.242536,-4.78804 16.463078,-5.66115 11.819556,-2.44514 22.697996,-1.54313 33.169556,2.75022 1.17063,0.47996 2.18739,0.79965 2.25929,0.71055 0.23951,-0.29666 0.60049,-5.61521 0.55759,-8.21552 -0.0738,-4.4744 -0.97962,-10.26068 -2.10892,-13.4736 l -0.49041,-1.396292 -2.53834,-0.307475 c -2.45365,-0.296967 -4.90946,-0.398828 -7.34787,-0.316777 z"
         style="fill:#000000;fill-opacity:1;stroke-width:0.770202"
         id="path80-3-6" />
      <path
         d="m 80.090202,149.56451 14.092163,-3.1197 c -1.839695,-0.43079 -3.713824,-0.79579 -5.582088,-1.0263 -2.511621,-0.30991 -7.193175,-0.48438 -7.749398,-0.28887 -0.211056,0.0742 -0.54742,2.18398 -0.760677,4.43487 z"
         style="fill:#000000;fill-opacity:1;stroke-width:0.770202"
         id="path79-1-5" />
      <path
         d="m 55.573352,154.99209 21.221444,-4.6979 c 0.05719,-0.8226 0.133853,-1.6415 0.232027,-2.45619 0.161711,-1.3418 0.253358,-2.46012 0.203088,-2.48512 -0.05025,-0.0249 -1.406863,0.16965 -3.014286,0.43254 -2.58533,0.42281 -3.478005,0.67137 -7.734928,2.15077 -4.895129,1.70115 -6.735727,2.54588 -9.943063,4.56406 l -1.197859,0.75396 0.210323,1.58905 c 0.0074,0.0559 0.01585,0.0937 0.02325,0.14883 z"
         style="fill:#000000;fill-opacity:1;stroke-width:0.770202"
         id="path78-7-7" />
      <path
         d="m 100.74631,144.99115 6.01927,-1.33222 c 3.15152,-4.51529 5.93982,-10.4382 7.36802,-15.81505 l 0.52969,-1.99316 -1.6552,-0.71469 c -13.491216,-5.82309 -27.619501,-5.82373 -42.661479,-0.002 -2.091513,0.80948 -4.550955,1.83264 -5.4653,2.27325 -3.777513,1.82032 -6.077844,3.07005 -6.400126,3.47731 -0.408323,0.51598 -1.598951,4.28302 -2.165243,6.84971 -0.53117,2.40747 -1.050421,6.48011 -1.157552,9.08213 -0.0876,2.12987 -0.04896,2.60923 0.204122,2.51923 0.07916,-0.0284 1.25114,-0.63458 2.604492,-1.34721 13.192988,-6.94692 29.117993,-8.01835 42.779306,-2.99723 z"
         style="fill:#000000;fill-opacity:1;stroke-width:0.770202"
         id="path77-01-9" />
      <path
         d="m 117.08536,100.07813 c -0.0377,-0.004 -0.0596,-0.002 -0.0636,0.006 -0.0146,0.0303 0.20791,1.04065 0.49454,2.24482 2.86525,12.03929 1.61804,24.34528 -3.57652,35.29087 -0.87651,1.84689 -1.74754,3.46924 -2.7125,5.05086 l 15.71429,-3.47886 c 0,0 -1.53775,-3.75957 2.38848,-3.18947 0.0999,0.0145 0.18739,0.019 0.29456,0.0393 0,0 -0.0561,-0.33854 -0.0904,-0.70435 -0.0697,-0.74261 -0.0404,-1.86067 0.73277,-2.38487 2.37287,-8.323 3.21568,-17.16719 1.91307,-24.7649 -0.2571,-1.49963 -0.32076,-1.65927 -0.79479,-2.00143 -1.23136,-0.88884 -5.22887,-2.93955 -7.47706,-3.83542 -2.08598,-0.83121 -6.25688,-2.21304 -6.82284,-2.27273 z"
         style="fill:#000000;fill-opacity:1;stroke-width:0.770202"
         id="path76-2-7" />
    </g>
    <g
       id="g3-6-4"
       style="stroke:none"
       transform="matrix(1.3348856,0,0,1.3348856,-56.056402,311.98876)">
      <path
         d="m 79.998077,-67.403986 c 30.805353,23.849419 75.112003,18.210557 98.961493,-12.594744 23.84961,-30.80519 18.21104,-75.11186 -12.59411,-98.96156 -30.80533,-23.84972 -75.11224,-18.21097 -98.961835,12.59451 -23.849732,30.80533 -18.21099,75.112238 12.59444,98.961839 z"
         style="display:inline;fill:none;fill-opacity:0.253898;stroke:none;stroke-width:0.280554;stroke-opacity:1"
         id="path2-9-5" />
      <path
         d="m 72.592107,-159.04135 c 19.950521,-27.93961 58.773303,-34.41612 86.712983,-14.46567 27.93974,19.95034 34.41652,58.77307 14.46624,86.712873 -19.95042,27.939872 -58.77342,34.416556 -86.713222,14.465968 C 59.118229,-92.2786 52.641536,-131.10158 72.592081,-159.04137 Z"
         style="display:inline;fill:none;fill-opacity:0.253898;stroke:none;stroke-width:0.247233;stroke-opacity:1"
         id="path2-6-6-5" />
    </g>
    <path
       d="m 123.9503,227.26765 -3.62931,0.42242 0.81082,6.97939 -6.59257,-6.3078 -3.05028,0.35439 1.52276,13.09733 3.63012,-0.42162 -0.81161,-6.98019 6.59256,6.30859 3.05027,-0.35518 z"
       style="font-size:14.1111px;line-height:0;font-family:Montserrat;-inkscape-font-specification:Montserrat;letter-spacing:1.32292px;fill:#ffffff;stroke-width:0"
       id="path11-8" />
    <path
       d="m 99.238039,228.18447 -0.65973,13.16932 10.573111,0.53 0.14404,-2.87862 -6.88526,-0.34488 0.12032,-2.40794 -0.26343,-0.0138 0.14006,-2.7845 0.26342,0.0138 0.11067,-2.21967 6.64083,0.33225 0.14481,-2.87782 z m 3.432341,5.2834 -0.14006,2.78448 5.85135,0.29346 0.13915,-2.78446 z"
       style="font-size:14.1111px;line-height:0;font-family:Montserrat;-inkscape-font-specification:Montserrat;letter-spacing:1.32292px;fill:#ffffff;stroke-width:0"
       id="path10-7" />
    <path
       d="m 90.044509,226.39511 c -0.37078,0.001 -0.73573,0.0282 -1.09402,0.0807 -0.94049,0.13042 -1.79455,0.42752 -2.56298,0.89072 -0.76843,0.46321 -1.4199,1.06783 -1.95388,1.81308 -0.53132,0.73296 -0.90357,1.58983 -1.11616,2.57169 -0.21261,0.98187 -0.22931,1.92307 -0.0514,2.82244 0.18052,0.88711 0.51839,1.69871 1.01411,2.43564 0.508,0.73957 1.16213,1.36974 1.96179,1.8898 0.80232,0.50779 1.7128,0.87187 2.73148,1.09244 0.93277,0.20196 1.91435,0.26695 2.94506,0.1946 1.03073,-0.0724 1.971,-0.29302 2.82166,-0.66132 l 1.15651,-5.33876 -3.22193,-0.69771 -0.76099,3.51698 c -0.14236,0.0331 -0.28884,0.0816 -0.42716,0.0996 -0.55268,0.0602 -1.09901,0.0315 -1.63905,-0.0854 -0.54002,-0.11695 -1.01804,-0.31047 -1.43496,-0.58062 -0.40197,-0.27977 -0.7285,-0.61327 -0.97851,-1.00146 -0.24735,-0.40048 -0.41338,-0.84765 -0.49915,-1.34162 -0.0735,-0.49132 -0.0521,-1.00726 0.0649,-1.54729 0.1223,-0.56456 0.31709,-1.04929 0.58458,-1.45394 0.28243,-0.41425 0.61802,-0.74591 1.00622,-0.99593 0.39085,-0.26228 0.83209,-0.43039 1.32341,-0.50389 0.49131,-0.0735 1.01318,-0.0508 1.56548,0.0689 0.62595,0.13547 1.16367,0.38047 1.61374,0.73489 0.46498,0.3448 0.86656,0.80446 1.20475,1.37879 l 2.7742,-1.59633 c -0.46118,-0.89648 -1.12697,-1.65088 -1.9966,-2.26317 -0.86963,-0.61231 -1.91194,-1.05006 -3.127,-1.31314 -0.52161,-0.11297 -1.0318,-0.18026 -1.53147,-0.20173 -0.12491,-0.006 -0.24898,-0.008 -0.37257,-0.008 z"
       style="font-size:14.1111px;line-height:0;font-family:Montserrat;-inkscape-font-specification:Montserrat;letter-spacing:1.32292px;fill:#ffffff;stroke-width:0"
       id="path9-6" />
    <g
       id="g15"
       style="fill:#000000"
       transform="matrix(1.5307663,0,0,1.5307663,-591.1926,173.04345)">
      <path
         d="m 493.29021,22.793702 c -0.48631,0.07775 -0.98139,0.242151 -1.4857,0.492993 -0.5031,0.239304 -0.97437,0.537277 -1.41386,0.894003 -0.65606,0.532503 -1.12379,1.075695 -1.40302,1.629875 -0.27923,0.554181 -0.39833,1.084291 -0.3576,1.590084 0.0471,0.500623 0.23343,0.951609 0.55914,1.352889 0.28952,0.356693 0.59979,0.595852 0.93121,0.717786 0.32625,0.115564 0.66016,0.156405 1.00201,0.121956 0.33667,-0.04082 0.67502,-0.12525 1.01492,-0.253214 0.34627,-0.133134 0.67659,-0.279955 0.99064,-0.439767 0.32042,-0.164981 0.61524,-0.30891 0.8847,-0.432532 0.26946,-0.123622 0.51044,-0.19816 0.72295,-0.222725 0.21251,-0.02456 0.3808,0.03989 0.50488,0.192753 0.0879,0.108282 0.12757,0.234979 0.11834,0.379822 -0.008,0.133303 -0.0713,0.290051 -0.18914,0.470255 -0.12304,0.173835 -0.31504,0.366809 -0.57619,0.578776 -0.38854,0.315366 -0.82926,0.572531 -1.3224,0.772046 -0.49194,0.187976 -0.96508,0.307767 -1.41955,0.359668 l 0.51108,1.899109 c 0.49425,-0.04193 1.04963,-0.196792 1.66657,-0.465088 0.61813,-0.279835 1.20095,-0.642141 1.74873,-1.086755 0.66243,-0.537673 1.13015,-1.081381 1.40301,-1.630392 0.27923,-0.55418 0.3954,-1.081192 0.3483,-1.581815 -0.0459,-0.512163 -0.22672,-0.962798 -0.54209,-1.351339 -0.28434,-0.350323 -0.58945,-0.583101 -0.9157,-0.698665 -0.32505,-0.127104 -0.65603,-0.170526 -0.99271,-0.129708 -0.34184,0.03445 -0.68312,0.121463 -1.02422,0.260966 -0.3399,0.127964 -0.67022,0.274785 -0.99064,0.439766 -0.31405,0.159812 -0.60629,0.307189 -0.87695,0.442351 -0.26946,0.123622 -0.50786,0.201092 -0.7152,0.232027 -0.20614,0.01939 -0.3684,-0.04419 -0.48731,-0.190686 -0.0931,-0.114652 -0.14083,-0.245148 -0.14314,-0.391191 -0.002,-0.146042 0.0552,-0.309171 0.17311,-0.489376 0.11271,-0.186574 0.29954,-0.385929 0.56069,-0.597896 0.293,-0.237817 0.63199,-0.43891 1.01648,-0.603064 0.37931,-0.170524 0.79819,-0.298987 1.25625,-0.385507 z"
         style="font-size:14.1111px;line-height:0;font-family:Montserrat;-inkscape-font-specification:Montserrat;letter-spacing:1.32292px;fill:#000000;stroke-width:0"
         id="path14-3" />
      <path
         d="m 486.30304,27.433213 -2.05982,1.301213 4.60127,7.281726 2.05982,-1.301213 z"
         style="font-size:14.1111px;line-height:0;font-family:Montserrat;-inkscape-font-specification:Montserrat;letter-spacing:1.32292px;fill:#000000;stroke-width:0"
         id="path13-5" />
      <path
         d="m 480.2693,30.890367 -2.17971,1.003556 0.14986,9.414412 2.25774,-1.03973 -0.0899,-1.80144 3.31711,-1.527555 1.31051,1.239201 2.3027,-1.060401 z m -0.10697,2.679423 2.15594,2.039668 -2.00814,0.924492 z"
         style="font-size:14.1111px;line-height:0;font-family:Montserrat;-inkscape-font-specification:Montserrat;letter-spacing:1.32292px;fill:#000000;stroke-width:0"
         id="path12-7" />
      <path
         d="m 424.67063,25.415249 -4.71393,7.208862 1.99781,1.306897 2.51251,-3.842143 0.66973,5.923153 1.67897,1.097607 4.71444,-7.209379 -1.99833,-1.30638 -2.51199,3.841626 -0.67024,-5.922636 z"
         style="font-size:14.1111px;line-height:0;font-family:Montserrat;-inkscape-font-specification:Montserrat;letter-spacing:1.32292px;fill:#000000;stroke-width:0"
         id="path8-3" />
      <path
         d="m 434.86329,31.621588 c -0.62284,-0.01958 -1.21339,0.07645 -1.7725,0.287838 -0.54839,0.206968 -1.03665,0.514665 -1.46451,0.922941 -0.42786,0.408275 -0.76668,0.911243 -1.01596,1.509468 -0.24928,0.598225 -0.36791,1.193097 -0.35657,1.784388 0.0113,0.59129 0.13504,1.158482 0.37104,1.701188 0.24672,0.538289 0.59606,1.021548 1.04851,1.450041 0.45245,0.428492 0.99689,0.77519 1.63298,1.040246 0.64366,0.268212 1.27298,0.410424 1.88825,0.426847 0.62285,0.01958 1.20862,-0.07415 1.757,-0.281119 0.54839,-0.206969 1.03665,-0.514149 1.46451,-0.922425 0.43859,-0.412692 0.78219,-0.918478 1.03146,-1.516703 0.24928,-0.598225 0.36463,-1.194592 0.34572,-1.789038 -0.0113,-0.59129 -0.13654,-1.154169 -0.37569,-1.689303 -0.236,-0.542705 -0.58056,-1.028266 -1.03301,-1.456758 -0.44488,-0.425337 -0.9888,-0.772552 -1.63246,-1.040764 -0.63609,-0.265056 -1.26593,-0.407268 -1.88877,-0.426847 z m 0.1943,2.093929 c 0.30921,0.0044 0.61539,0.06964 0.91829,0.195854 0.3029,0.126217 0.56083,0.29623 0.77411,0.509529 0.22086,0.216455 0.3832,0.465966 0.48731,0.749309 0.11485,0.278925 0.1668,0.581013 0.15607,0.905371 -1e-5,0.31994 -0.0724,0.653672 -0.21756,1.002006 -0.142,0.340761 -0.32829,0.627563 -0.55862,0.860412 -0.22277,0.236006 -0.47498,0.415537 -0.75706,0.537952 -0.27136,0.117998 -0.56154,0.174441 -0.87075,0.170016 -0.30164,-0.0013 -0.60402,-0.06499 -0.90692,-0.191203 -0.3029,-0.126218 -0.56462,-0.297209 -0.78548,-0.513664 -0.21329,-0.213299 -0.37764,-0.459531 -0.49248,-0.738456 -0.10412,-0.283343 -0.15458,-0.588711 -0.15141,-0.916223 0.0107,-0.324358 0.0869,-0.657111 0.22892,-0.997872 0.14515,-0.348334 0.32765,-0.636631 0.54726,-0.865064 0.23033,-0.23285 0.48105,-0.408067 0.75241,-0.526066 0.28208,-0.122415 0.57427,-0.183171 0.87591,-0.181901 z m 10.21591,1.142566 c 0.32642,0.01402 0.6597,0.05799 1.00046,0.131775 0.79376,0.171868 1.47467,0.45783 2.04277,0.857829 0.5681,0.399998 1.00304,0.892821 1.30431,1.478462 l -1.81229,1.042831 c -0.22093,-0.375192 -0.48327,-0.675469 -0.78703,-0.90072 -0.29401,-0.231534 -0.64529,-0.391537 -1.0542,-0.480074 -0.3608,-0.07812 -0.70171,-0.09298 -1.02268,-0.04496 -0.32096,0.04802 -0.60921,0.157835 -0.86454,0.329179 -0.2536,0.163326 -0.47283,0.379988 -0.65733,0.650606 -0.17474,0.264337 -0.30203,0.580994 -0.38189,0.949813 -0.0764,0.352783 -0.0904,0.689828 -0.0424,1.010791 0.056,0.322699 0.16449,0.614815 0.32608,0.876432 0.16332,0.2536 0.37663,0.47146 0.63923,0.654224 0.27236,0.176483 0.58463,0.302919 0.93741,0.379305 0.35279,0.07639 0.70969,0.09515 1.07074,0.05581 0.0904,-0.01179 0.18604,-0.04348 0.27905,-0.06511 l 0.49713,-2.297534 2.10478,0.455786 -0.75551,3.487643 c -0.55572,0.240603 -1.16996,0.384752 -1.8433,0.432015 -0.67333,0.04726 -1.31456,0.0048 -1.92391,-0.127124 -0.66548,-0.144092 -1.26026,-0.38193 -1.78439,-0.713652 -0.52239,-0.339739 -0.94971,-0.751404 -1.28157,-1.23455 -0.32384,-0.48141 -0.54456,-1.011597 -0.66249,-1.591117 -0.11621,-0.587538 -0.1053,-1.202391 0.0336,-1.843815 0.13888,-0.641425 0.38205,-1.201171 0.72915,-1.680001 0.34883,-0.486848 0.77442,-0.881826 1.27641,-1.184424 0.50199,-0.302599 1.05991,-0.496672 1.67431,-0.581877 0.31208,-0.04574 0.63167,-0.06156 0.95808,-0.04754 z m 21.90616,0.564823 0.99477,8.556067 -1.99264,0.232027 -4.30671,-4.121195 0.5302,4.559928 -2.37144,0.275432 -0.99477,-8.556063 1.99265,-0.231511 4.30671,4.120679 -0.52968,-4.559411 z m -16.14372,0.59893 6.7474,0.338481 -0.0946,1.879989 -4.33824,-0.217042 -0.0723,1.450041 3.82199,0.19172 -0.0909,1.81901 -3.8225,-0.191719 -0.0786,1.57303 4.49792,0.225309 -0.0941,1.88051 -6.90707,-0.346236 z"
         style="font-size:14.1111px;line-height:0;font-family:Montserrat;-inkscape-font-specification:Montserrat;letter-spacing:1.32292px;fill:#000000;stroke-width:0"
         id="path7-2" />
      <path
         d="m 475.30061,33.159995 -7.42693,2.089795 0.52296,1.859835 2.54713,-0.716752 1.80919,6.432166 2.3456,-0.659908 -1.80971,-6.432166 2.53524,-0.713135 z"
         style="font-size:14.1111px;line-height:0;font-family:Montserrat;-inkscape-font-specification:Montserrat;letter-spacing:1.32292px;fill:#000000;stroke-width:0"
         id="path3-3" />
    </g>
    <text
       xml:space="preserve"
       style="font-style:normal;font-variant:normal;font-weight:normal;font-stretch:normal;font-size:14.1111px;font-family:Montserrat;-inkscape-font-specification:Montserrat;letter-spacing:1.32292px;fill:#000000;fill-opacity:1;stroke:none;stroke-width:0.7;stroke-dasharray:none;stroke-opacity:1"
       id="text3-89-0"
       transform="matrix(1.3348856,0,0,1.3348856,-56.056402,311.98876)"><textPath
         xlink:href="#path2-6-6-5"
         id="textPath3-4-6"
         style="font-size:14.1111px;letter-spacing:1.32292px;fill:#000000;stroke:none">VOLLEY CLUB</textPath></text>
    <text
       xml:space="preserve"
       style="font-style:normal;font-variant:normal;font-weight:normal;font-stretch:normal;font-size:15.0694px;line-height:0;font-family:Montserrat;-inkscape-font-specification:Montserrat;letter-spacing:1.76595px;fill:#000000;fill-opacity:1;stroke:none;stroke-width:0.93442;stroke-dasharray:none;stroke-opacity:1"
       x="11.313349"
       y="151.12706"
       id="text5-82-9"><tspan
         sodipodi:role="line"
         id="tspan5-1-5"
         style="font-size:15.0694px;fill:#000000;fill-opacity:1;stroke:none;stroke-width:0.93442"
         x="11.313349"
         y="151.12706">19</tspan></text>
    <text
       xml:space="preserve"
       style="font-style:normal;font-variant:normal;font-weight:normal;font-stretch:normal;font-size:15.0694px;line-height:0;font-family:Montserrat;-inkscape-font-specification:Montserrat;letter-spacing:1.76595px;fill:#000000;fill-opacity:1;stroke:none;stroke-width:0.93442;stroke-dasharray:none;stroke-opacity:1"
       x="187.28683"
       y="151.12706"
       id="text5-8-8-6"><tspan
         sodipodi:role="line"
         id="tspan5-5-6-7"
         style="font-size:15.0694px;fill:#000000;fill-opacity:1;stroke:none;stroke-width:0.93442"
         x="187.28683"
         y="151.12706">72</tspan></text>
  </g>
</svg>
