<?xml version="1.0" encoding="UTF-8" standalone="no"?>
<!-- Created with Inkscape (http://www.inkscape.org/) -->

<svg
   width="332.56229mm"
   height="158.41248mm"
   viewBox="0 0 332.56229 158.41248"
   version="1.1"
   id="svg1"
   xml:space="preserve"
   inkscape:version="1.3.2 (091e20e, 2023-11-25, custom)"
   sodipodi:docname="vcn_monogramme.svg"
   inkscape:export-filename="..\..\Mattis étude\Amos\Stage\VCN\Branding\vcn_monogramme\vcn_monogramme_v1_white.svg"
   inkscape:export-xdpi="96"
   inkscape:export-ydpi="96"
   xmlns:inkscape="http://www.inkscape.org/namespaces/inkscape"
   xmlns:sodipodi="http://sodipodi.sourceforge.net/DTD/sodipodi-0.dtd"
   xmlns="http://www.w3.org/2000/svg"
   xmlns:svg="http://www.w3.org/2000/svg"><sodipodi:namedview
     id="namedview1"
     pagecolor="#ffffff"
     bordercolor="#000000"
     borderopacity="0.25"
     inkscape:showpageshadow="2"
     inkscape:pageopacity="0.0"
     inkscape:pagecheckerboard="0"
     inkscape:deskcolor="#d1d1d1"
     inkscape:document-units="mm"
     inkscape:zoom="0.26425487"
     inkscape:cx="-327.3355"
     inkscape:cy="-9.4605636"
     inkscape:window-width="1920"
     inkscape:window-height="1017"
     inkscape:window-x="-8"
     inkscape:window-y="-8"
     inkscape:window-maximized="1"
     inkscape:current-layer="layer1" /><defs
     id="defs1" /><g
     inkscape:label="Calque 1"
     inkscape:groupmode="layer"
     id="layer1"
     style="display:inline"
     transform="translate(61.281156,-69.630712)"><g
       id="g1"
       transform="translate(44.89471,343.8249)"
       style="display:inline"><path
         d="m 139.03389,118.87853 c -11.14397,0.16342 -23.51238,2.17578 -37.69899,6.08335 -16.66482,4.59018 -24.22835,6.11642 -33.88372,6.83628 -15.20724,1.13376 -31.058088,-1.61204 -44.582292,-7.72253 -4.012632,-1.81299 -4.157264,-1.84463 -3.137276,-0.67954 3.111994,3.55468 9.692253,8.24303 16.24242,11.5719 1.263861,0.6423 2.5123,1.23466 3.754292,1.79265 0.177677,-0.0646 1.117706,0.17107 3.392041,0.76585 12.761721,3.33746 27.290157,4.11572 40.862622,2.18901 8.617425,-1.22332 15.274243,-2.86429 29.822473,-7.35097 12.38476,-3.81948 23.3179,-6.1599 33.32871,-7.09827 6.0065,-0.56301 11.68087,-0.62129 17.13797,-0.19121 3.62642,0.2858 7.94859,0.8793 11.24221,1.54358 0.34013,0.0686 0.68806,0.16041 1.03405,0.23616 -1.90278,-0.95715 -4.27695,-2.01506 -6.52519,-2.84686 -3.52003,-1.30234 -8.18154,-2.62356 -12.12432,-3.43648 -5.93315,-1.22329 -12.17862,-1.79097 -18.865,-1.69292 z"
         id="path6-6"
         style="display:inline;fill:#0e2942;fill-opacity:1"
         transform="matrix(1.2862064,0,0,1.2862064,-61.788516,-302.19586)" /><path
         d="m 176.5484,126.85479 c -0.34599,-0.0757 -0.69392,-0.16757 -1.03405,-0.23616 -3.29362,-0.66428 -7.61579,-1.25778 -11.24221,-1.54358 -5.4571,-0.43008 -11.13147,-0.3718 -17.13797,0.19121 -10.01081,0.93837 -20.94395,3.27879 -33.32871,7.09827 -14.54823,4.48668 -21.205048,6.12765 -29.822473,7.35097 -13.572465,1.92671 -28.100901,1.14845 -40.862622,-2.18901 -2.274335,-0.59478 -3.214364,-0.83043 -3.392041,-0.76585 3.986535,1.79106 7.890998,3.16557 11.895398,4.18063 3.627333,0.91948 14.793441,2.67927 19.9285,3.14089 5.811619,0.52244 19.416464,0.39733 23.8125,-0.21911 7.198858,-1.00947 13.489598,-2.58262 20.510378,-5.12888 2.39822,-0.86977 6.86079,-2.48992 9.91671,-3.6003 11.53359,-4.19075 19.18162,-5.93903 29.60542,-6.76651 6.29667,-0.49986 16.32008,-0.18265 20.95066,0.66249 2.41134,0.4401 3.81579,0.49928 3.81579,0.16123 0,-0.34979 -1.51814,-1.28137 -3.61528,-2.33629 z"
         style="display:inline;fill:none;fill-opacity:1;stroke:#0e2942;stroke-width:1.03638;stroke-dasharray:none;stroke-opacity:1"
         id="path7-9"
         transform="matrix(1.2862064,0,0,1.2862064,-61.788516,-302.19586)" /><text
         xml:space="preserve"
         style="font-size:149.668px;line-height:0;font-family:Montserrat;-inkscape-font-specification:Montserrat;letter-spacing:0px;fill:#0e2942;fill-opacity:1;stroke:none;stroke-width:13.258"
         x="-104.08051"
         y="-167.33124"
         id="text7-2"><tspan
           sodipodi:role="line"
           id="tspan7-72"
           x="-104.08051"
           y="-167.33124"
           style="letter-spacing:0px;fill:#0e2942;fill-opacity:1;stroke:none;stroke-width:13.258">VCN</tspan></text></g></g></svg>
